<?xml version="1.0" standalone="no"?>
<!DOCTYPE svg PUBLIC "-//W3C//DTD SVG 20010904//EN"
 "http://www.w3.org/TR/2001/REC-SVG-20010904/DTD/svg10.dtd">
<svg version="1.0" xmlns="http://www.w3.org/2000/svg"
 width="197.000000pt" height="197.000000pt" viewBox="0 0 197.000000 197.000000"
 preserveAspectRatio="xMidYMid meet">
<metadata>
Created by potrace 1.14, written by Peter Selinger 2001-2017
</metadata>
<g transform="translate(0.000000,197.000000) scale(0.100000,-0.100000)"
fill="#000000" stroke="none">
<path d="M90 985 l0 -985 895 0 895 0 0 985 0 985 -895 0 -895 0 0 -985z
m1590 667 c0 -108 5 -224 10 -257 10 -62 5 -75 -32 -75 -13 0 -18 13 -23 58
-25 226 -95 309 -290 343 -72 12 -312 6 -326 -8 -19 -19 -49 -341 -49 -524 0
-113 -4 -109 109 -109 134 0 204 57 237 193 15 60 19 67 42 67 24 0 24 -2 18
-47 -22 -162 -28 -259 -21 -368 12 -199 12 -199 -7 -203 -13 -2 -20 8 -28 40
-25 102 -33 121 -66 158 -20 21 -52 44 -71 51 -41 13 -190 6 -206 -10 -9 -9 6
-387 19 -473 4 -26 16 -47 40 -67 53 -47 128 -64 284 -65 130 0 137 1 200 30
36 17 82 45 102 63 45 39 86 118 94 183 7 47 8 49 37 46 l31 -3 -3 -70 c-4
-115 -20 -367 -23 -370 -2 -1 -142 -8 -313 -14 -170 -7 -326 -14 -345 -16 -19
-2 -96 -9 -170 -15 -74 -7 -171 -18 -215 -26 -102 -18 -105 -18 -105 5 0 12
18 30 49 49 26 17 57 43 68 59 57 79 78 240 70 518 -4 110 -12 367 -18 570 -6
204 -15 374 -20 379 -15 17 -140 25 -214 15 -77 -11 -172 -50 -224 -94 -79
-67 -106 -214 -58 -306 35 -65 90 -100 170 -106 94 -8 132 2 181 47 123 113
53 308 -101 285 -61 -9 -113 -59 -113 -109 0 -21 4 -46 10 -56 15 -28 60 -40
96 -26 l29 13 -22 14 c-42 26 -24 79 27 79 35 0 50 -17 50 -57 0 -50 -44 -94
-100 -99 -54 -6 -86 9 -117 55 -39 58 -25 139 33 192 87 79 229 58 283 -41 33
-58 36 -166 7 -224 -40 -80 -157 -133 -273 -123 -159 12 -251 114 -253 278 0
57 5 77 36 138 29 59 47 81 95 116 117 86 224 110 442 101 389 -16 559 -18
702 -7 83 7 166 16 185 20 19 4 38 6 43 4 4 -2 7 -93 7 -201z"/>
</g>
</svg>
